<?xml version="1.0" encoding="utf-8"?>
<!-- Generator: Adobe Illustrator 25.2.3, SVG Export Plug-In . SVG Version: 6.00 Build 0)  -->
<svg version="1.1" id="Isolation_Mode" xmlns="http://www.w3.org/2000/svg" xmlns:xlink="http://www.w3.org/1999/xlink" x="0px"
	 y="0px" viewBox="-20 -20 249.6 141.3" style="enable-background:new 0 0 209.6 91.3;" xml:space="preserve">
<style type="text/css">
	.st0{fill:#020000;}
</style>
<g>
	<path d="M82.3,68.5c-6.8,0.4-12.6,4.9-14.5,11.4c-1.7,4.4,0.5,9.3,4.9,10.9c1.1,0.4,2.3,0.6,3.4,0.5c6.8-0.4,12.6-5,14.5-11.5
		c1.6-4.4-0.6-9.3-5-10.9C84.6,68.6,83.4,68.4,82.3,68.5z"/>
	<path d="M177.1,68.5c-6.8,0.4-12.6,4.9-14.5,11.4c-1.6,4.4,0.6,9.3,5,10.9c1.1,0.4,2.2,0.6,3.4,0.5c6.7-0.4,12.5-5,14.4-11.5
		c1.6-4.4-0.6-9.3-5-10.9C179.3,68.6,178.2,68.4,177.1,68.5z"/>
	<path class="st0" d="M40.3,70.1L57.8,7.9c1.4-4.5,5.6-7.6,10.5-7.9h84.5c3.4-0.1,6.2,2.3,6.4,5.6c0,0.8-0.1,1.6-0.4,2.3l-17.5,62.2
		c-1.4,4.5-5.6,7.6-10.5,7.8H98.2c1.8-7.1-2.8-14.2-10.3-15.9c-1.3-0.3-2.7-0.4-4-0.3c-10.5,0.5-19.6,6.9-23.4,16.2H46.3
		c-3.4,0.2-6.3-2.3-6.4-5.5C39.9,71.6,40,70.8,40.3,70.1z"/>
	<path d="M31.4,49.4h-8.6c-2.9-0.2-5.1-2.8-4.9-5.7c0.2-2.6,2.3-4.7,4.9-4.9h8.6c2.9,0.2,5.1,2.8,4.9,5.7C36,47.2,34,49.2,31.4,49.4
		z M41.5,26.4c0-2.9-2.4-5.3-5.3-5.3H14.4c-2.9,0.2-5.1,2.8-4.9,5.7c0.2,2.6,2.3,4.7,4.9,4.9h21.7c2.9,0.1,5.3-2.3,5.4-5.2
		c0-0.1,0-0.2,0-0.3V26.4z M46.3,8.6c0-2.9-2.4-5.3-5.3-5.3H4.9C2,3.5-0.2,6.1,0,9c0.2,2.6,2.3,4.7,4.9,4.9H41
		C43.9,13.9,46.3,11.5,46.3,8.6c0-0.1,0-0.1,0-0.2V8.6z"/>
	<path d="M209.5,68.5l-1.8,6.8c-0.2,0.9-1,1.6-2,1.7h-12.4c0.2-7.6-5.8-13.9-13.4-14.1c-0.4,0-0.8,0-1.2,0
		c-9.3,0.5-17.7,5.8-22.1,14h-8.5l14.8-55.1c10.4,0,20.4,0,30.5,0c3.1,0,5.7,2.1,6.2,5.1c2.6,8.9,5.1,17.9,7.6,26.9
		c0.2,0.7,0.2,1.5,0,2.2c-1.3,5.1-2,7.8-2.8,10.6h3.9c0.7,0,1.2,0.5,1.2,1.2C209.6,68.1,209.5,68.2,209.5,68.5L209.5,68.5z
		 M196.6,49.5c-1.8-5.8-3.3-11.2-5.2-16.6c-0.3-0.8-1-1.5-1.8-1.6c-6.6,0-12.9,0-19.4,0l-5,18.1L196.6,49.5z"/>
</g>
</svg>
