<?xml version="1.0" encoding="utf-8"?>
<!-- Generator: Adobe Illustrator 25.2.3, SVG Export Plug-In . SVG Version: 6.00 Build 0)  -->
<svg version="1.1" id="Isolation_Mode" xmlns="http://www.w3.org/2000/svg" xmlns:xlink="http://www.w3.org/1999/xlink" x="0px"
	 y="0px" viewBox="0 -40 166.3 269.8" style="enable-background:new 0 0 166.3 179.8;" xml:space="preserve">
<g>
	<path d="M166,16.9c-0.8-5.8-3.9-10.7-8.5-13.8c-9.5-6.3-23-2.8-30,7.8c-3.2,4.9-6.5,13.5-8.3,21.4l3.7,0.8
		c1.7-7.5,4.7-15.6,7.7-20.2c3.9-5.9,10.2-9.2,16.2-9.2c3,0,5.9,0.8,8.5,2.5c3.7,2.5,6.2,6.4,6.9,11.2c0.1,0.9,0.2,1.8,0.2,2.7
		c0,4-1.2,8-3.5,11.5c-2.9,4.3-8.7,10-14.7,14.4c-0.5,0.4-1,0.7-1.5,1.1c-0.3,0.2-0.6,0.4-0.9,0.6c-5.4,3.6-10.2,5.7-13.7,5.8
		c-0.1,0-0.3,0-0.4,0c-0.9,0-1.7-0.1-2.4-0.4c-0.3-0.1-0.5-0.2-0.7-0.4c-0.2-0.2-0.5-0.3-0.7-0.6l0,0c-0.6-0.4-1.3-0.6-2-0.8
		c-0.8-0.2-1.6-0.3-2.5-0.3c-0.2,0-0.3,0-0.5,0v0.1c0.7,2,1.9,3.7,3.6,4.8c1.5,1,3.3,1.4,5.2,1.4c0.2,0,0.4,0,0.6,0c0,0,0,0,0.1,0
		l0,0L130,57c3.7-0.6,8.1-2.5,13-5.7c0,0,8.5-6.2,11.4-8.9c3.2-3,5.9-6.1,7.7-8.8C165.4,28.6,166.8,22.6,166,16.9z"/>
	<path d="M151.5,86.5l-7.6-33.7c-5.1,3.3-9.7,5.4-13.6,6c0.5,3.3-0.6,6.7-3.1,9.2c-4.3,4.3-11.2,4.3-15.5,0s-4.3-11.2,0-15.5
		c1.4-1.4,3.1-2.4,4.9-2.8c0.6-0.1,1.1-0.2,1.7-0.3c1.4-0.1,2.7,0,4.1,0.3c0.9,0.2,1.7,0.6,2.5,1.1c0.4,0.2,0.8,0.5,1.2,0.8
		c0.4,0.1,0.9,0.2,1.5,0.2c3.1,0,7.9-2,13.1-5.5c0.5-0.3,1-0.7,1.5-1l-0.8-3.5c-0.4-1.7-1.8-3.1-3.5-3.5L124,35.2l-1.7-0.4l-3.7-0.8
		l-1.7-0.4L93,28.2c-1.5-0.3-3.2,0.1-4.3,1.2L1.3,117.1c-1.8,1.8-1.8,4.7,0,6.5l54.8,54.8c1.8,1.8,4.7,1.8,6.5,0l87.7-87.7
		C151.4,89.7,151.9,88,151.5,86.5z"/>
</g>
</svg>
