<?xml version="1.0" encoding="utf-8"?>
<!-- Generator: Adobe Illustrator 26.1.0, SVG Export Plug-In . SVG Version: 6.00 Build 0)  -->
<svg version="1.1" id="Isolation_Mode" xmlns="http://www.w3.org/2000/svg" xmlns:xlink="http://www.w3.org/1999/xlink" x="0px"
	 y="0px"  viewBox="1200 230 267.9 161.2" style="enable-background:new 0 0 2000 2000;" xml:space="preserve">
<g>
	<polygon points="1343.7,315.2 1332.9,282 1322.1,315.3 1286.9,315.2 1315.5,335.8 1304.5,369.2 1332.9,348.5 1361.3,369.2 
		1350.3,335.8 1378.9,315.2 	"/>
	<path d="M1441.7,295.7c0-0.2,0-0.3,0-0.4c-0.2-0.5-0.5-1-1-1.3c-0.5-0.4-1-0.5-1.6-0.5h-36.6l-11.3-34.7c-0.2-0.5-0.5-1-0.9-1.3
		c-0.4-0.3-0.9-0.5-1.5-0.5c-0.6,0-1.1,0.2-1.6,0.5c-0.5,0.3-0.8,0.8-1,1.3l-11.3,34.8l-30.6-0.1l4.4,13.6l1.3,0.9h32.1
		c1.4,0,2.7,0.5,3.8,1.3c1,0.8,1.7,1.7,2.1,2.9l0.2,0.6v0.5c0.1,0.4,0.1,0.7,0.1,1c0,1.1-0.2,2.1-0.7,2.9c-0.4,0.8-1,1.5-1.7,2
		l-0.1,0.1l-25.1,18.1l-1.1,3.2l4.4,13.4l24.8-18l29.5,21.5c0.2,0.1,0.4,0.2,0.7,0.3c0.3,0.1,0.6,0.1,0.9,0.1c0.7,0,1.3-0.3,1.9-0.8
		c0.5-0.5,0.8-1.2,0.8-1.9c0-0.1,0-0.3,0-0.4c0-0.2,0-0.3,0-0.4l-11.5-34.7l29.7-21.4c0.3-0.3,0.6-0.6,0.8-0.9
		c0.2-0.4,0.3-0.8,0.3-1.2C1441.7,296,1441.7,295.9,1441.7,295.7z"/>
	<path d="M1306.3,340.5l-1-3.2l-25-18.1c-0.8-0.6-1.5-1.3-2-2.1c-0.6-1-0.8-2-0.8-3.1c0-1.7,0.6-3.2,1.8-4.4
		c1.2-1.2,2.7-1.8,4.4-1.8h0.3l31.9,0.1l1.4-1l4.4-13.6h-30.7l-11.3-34.7c-0.2-0.5-0.5-1-0.9-1.3c-0.4-0.3-0.9-0.5-1.5-0.5
		c-0.6,0-1.1,0.2-1.6,0.5c-0.5,0.3-0.8,0.8-1,1.3l-11.3,34.8l-36.5-0.1c-0.1,0-0.1,0-0.1,0c0,0-0.1,0-0.1,0c-0.7,0-1.3,0.3-1.9,0.8
		c-0.5,0.5-0.8,1.2-0.8,1.9c0,0.5,0.1,0.9,0.3,1.3c0.2,0.4,0.5,0.7,0.9,1l29.7,21.4l-11.5,34.7c0,0.1,0,0.3,0,0.4c0,0.2,0,0.3,0,0.4
		c0,0.7,0.3,1.3,0.8,1.9c0.5,0.5,1.2,0.8,1.9,0.8c0.3,0,0.6,0,0.9-0.1c0.3-0.1,0.5-0.2,0.7-0.3l29.6-21.5l24.7,18L1306.3,340.5z"/>
</g>
</svg>
