<?xml version="1.0" encoding="utf-8"?>
<!-- Generator: Adobe Illustrator 21.0.0, SVG Export Plug-In . SVG Version: 6.00 Build 0)  -->
<svg version="1.1" id="Layer_1" xmlns="http://www.w3.org/2000/svg" xmlns:xlink="http://www.w3.org/1999/xlink" x="0px" y="0px"
	 viewBox="0 0 65 65" style="enable-background:new 0 0 65 65;" xml:space="preserve">
<path d="M38.3,10c0.8,0,1.5,0,2.1,0c1.4,0,2.7,0.1,4.1,0c1.3-0.1,2.4,0.4,3.3,1.2c1.4,1.2,2.7,2.5,4.1,3.7c1.8,1.7,3.9,2.7,6.5,2.5
	c2-0.1,4.1,0,6.1,0c0,7,0,13.8,0,20.8c-1.8,0-3.5,0-5.2,0c-0.2,0-0.5-0.3-0.5-0.5c-0.2-1.2-0.8-2.2-1.6-3c-1.7-1.7-3.4-3.4-5-5
	c-1.5-1.5-3.3-1.9-5.1-1.1c-1.8,0.8-2.7,2.4-2.6,4.5c0,0.1,0,0.2,0,0.5c-1.6,0-3.1,0.4-4.1,1.8c-1,1.4-1.1,2.8-0.6,4.5
	c-3.2,0.5-4.7,2.4-4.3,5.7c-0.3,0-0.6,0.1-0.8,0.1c-3.2,0.5-4.8,3.5-3.4,6.4c0.2,0.4,0.2,0.7-0.2,1c-0.4,0.3-0.7,0.7-1,1
	c-1.3,1.2-3,1.2-4.2,0c-1.2-1.2-1.2-3,0-4.2c2.5-2.5,5-5,7.6-7.6c0.1-0.1,0.4-0.3,0.4-0.4c0.1-0.3,0.2-0.8,0.1-1
	c-0.3-0.4-0.7-0.3-1.1,0c-0.9,0.9-1.8,1.8-2.7,2.7c-2.2,2.2-4.5,4.5-6.7,6.7c-1.3,1.3-3.2,1.4-4.4,0.2c-1.2-1.2-1.2-3.1,0.1-4.5
	c3-3,6.1-6.1,9.1-9.1c0.2-0.2,0.4-0.3,0.5-0.5c0.1-0.3,0.1-0.7,0-0.8c-0.2-0.2-0.6-0.2-0.9-0.1c-0.2,0-0.4,0.3-0.6,0.5
	c-3.6,3.6-7.2,7.2-10.7,10.7c-0.9,0.9-1.9,1.3-3.1,0.8c-1.2-0.4-1.9-1.3-2.1-2.5c-0.2-1,0.3-1.9,1-2.6c3.6-3.6,7.1-7.1,10.7-10.7
	c0.2-0.2,0.5-0.3,0.5-0.6c0.1-0.3,0-0.7-0.1-0.9c-0.1-0.2-0.6-0.1-0.8-0.1c-0.2,0.1-0.4,0.3-0.6,0.5c-3.1,3.1-6.3,6.3-9.4,9.4
	c-1,1-2.1,1.2-3.3,0.6c-1.2-0.6-2-1.8-1.8-3.1c0.1-0.6,0.4-1.3,0.9-1.8c5.1-5.1,10.2-10.2,15.3-15.3c0.2-0.2,0.6-0.4,0.9-0.4
	c2.5,0,5.1,0,7.6,0c0.3,0,0.7,0.2,1,0.5c1.9,1.7,4.1,3.1,6.6,3.6c1.7,0.4,3.3,0.3,4.9-0.5c2.8-1.3,3.3-4.2,1.1-6.5
	c-2.2-2.3-4.5-4.5-6.7-6.7C38.8,10.6,38.7,10.4,38.3,10z M5.4,38.2c0.2,0,0.6-0.3,0.6-0.6c0.2-1.1,0.7-2.1,1.5-2.9
	c5.1-5.1,10.2-10.2,15.3-15.2c0.3-0.3,0.9-0.6,1.4-0.6c2.7-0.1,5.4,0,8.1,0c0.7,0,1.1,0.3,1.7,0.7c1.1,0.9,2.3,1.8,3.6,2.6
	c1.8,1,3.7,1.4,5.7,0.9c2.4-0.6,3.3-2.9,1.3-4.8c-2.2-2.1-4.3-4.2-6.4-6.4c-1.2-1.3-2.5-1.8-4.3-1.8c-4.4,0.1-8.8,0.1-13.2,0
	c-1.4,0-2.5,0.4-3.5,1.3c-1.5,1.3-2.9,2.7-4.4,4c-1.6,1.5-3.5,2.3-5.8,2.1c-2.1-0.1-4.3,0-6.5,0c0,6.9,0,13.8,0,20.8
	C2.2,38.2,3.8,38.2,5.4,38.2z M51.9,41.9c-2-2.1-4-4.1-6.1-6.1c-1.1-1.1-2.9-1-4,0.1c-1.2,1.1-1.3,2.8-0.3,4c2,2.2,4.1,4.2,6.3,6.3
	c0.9,0.9,2,0.9,3.2,0.4c1.1-0.5,1.7-1.5,1.8-3.1C52.6,43.2,52.4,42.4,51.9,41.9z M56.8,36.3c-2-2.1-4.1-4.2-6.2-6.2
	c-1.1-1-2.8-0.8-3.9,0.3c-1.1,1.1-1.3,2.8-0.3,3.8c2,2.1,4,4.1,6.1,6.1c0.9,0.8,2.1,0.9,3.2,0.4c1.1-0.5,1.6-1.4,1.7-3
	C57.3,37.5,57.2,36.8,56.8,36.3z M46.5,49.6c0.5-1.2,0.4-2.3-0.5-3.2c-1.4-1.5-2.8-2.9-4.3-4.3c-1.2-1.1-2.9-1.1-4.1,0.1
	c-1.2,1.2-1.2,2.9-0.1,4.1c1.3,1.4,2.7,2.8,4.1,4.1c0.5,0.5,1.3,0.8,1.7,1C45,51.3,46,50.8,46.5,49.6z M39.1,50
	c-0.6-0.7-1.3-1.4-2-2.1c-1.2-1.2-3.1-1.1-4.2,0c-1.2,1.2-1.2,3,0,4.2c0.7,0.7,1.3,1.4,2,2c0.9,0.9,2,1.1,3.1,0.6
	c1.2-0.5,1.9-1.6,2.1-2.9C39.8,51.2,39.6,50.5,39.1,50z"/>
</svg>
