<?xml version="1.0" encoding="utf-8"?>
<!-- Generator: Adobe Illustrator 21.0.0, SVG Export Plug-In . SVG Version: 6.00 Build 0)  -->
<svg version="1.1" id="Layer_1" xmlns="http://www.w3.org/2000/svg" xmlns:xlink="http://www.w3.org/1999/xlink" x="0px" y="0px"
	 viewBox="0 0 75 65" style="enable-background:new 0 0 75 65;" xml:space="preserve">
<style type="text/css">
	.st0{fill:#010101;}
</style>
<g id="Element_26_">
	<path class="st0" d="M1.9,44.8c-1.5,0.7-2.1,2.5-1.3,4l4,8.1c0.7,1.5,2.5,2.1,4,1.3c1.2-0.6,1.8-2,1.6-3.2l11.6-2.2l0.6,3.1
		c0.6,2.9,2.2,5.3,4.6,6.9c2.4,1.6,5.3,2.2,8.2,1.6l13.1-2.6c0.2,0,0.4-0.1,0.6-0.1c5.6-1.5,9.1-7,7.9-12.7l-0.6-2.8l8.4-1.6
		l0.4,0.8c1.2,2.5,4.2,3.5,6.7,2.3c2.5-1.2,3.5-4.2,2.3-6.7L55.5,3.2c-1.2-2.5-4.2-3.5-6.7-2.3c-2.5,1.2-3.5,4.2-2.3,6.7l0.4,0.8
		L5.5,45.5C4.6,44.5,3.2,44.2,1.9,44.8z M50.7,50.2c0.5,2.5-1.1,4.9-3.6,5.4L34,58.2c-1.2,0.2-2.4,0-3.4-0.7c-1-0.7-1.7-1.7-1.9-2.9
		L28,51.6l22.1-4.2L50.7,50.2z"/>
</g>
</svg>
